<svg viewBox="0 0 1000 1000" xmlns="http://www.w3.org/2000/svg">
  <defs>
    <clipPath id="a">
      <path fill="currentColor" d="M909.5 625Q844 750 706 729t-230.5 56q-92.5 77-164-9.5t-87-181Q209 500 203.5 390T318 294.5Q438 309 502 303t211.5-35.5Q861 238 918 369t-8.5 256Z"/>
    </clipPath>
  </defs>
  <g clip-path="url(#a)">
    <path fill="#ebebeb" d="M909.5 625Q844 750 706 729t-230.5 56q-92.5 77-164-9.5t-87-181Q209 500 203.5 390T318 294.5Q438 309 502 303t211.5-35.5Q861 238 918 369t-8.5 256Z"/>
  </g>
</svg>
