<?xml version="1.0" encoding="UTF-8" standalone="no"?>
<svg id="Layer_1" data-name="Layer 1" xmlns="http://www.w3.org/2000/svg" viewBox="0 0 128 128">
  <title>b</title>
  <path fill="#6edb98" d="M118.5458,14.18707c-36.19449-15.30436-72.898-15.30394-109.0916,0L6.28884,15.52536l5.19414,61.497a52.704,52.704,0,0,0,105.034,0l5.19414-61.497ZM107.07436,76.22479a43.2277,43.2277,0,0,1-86.14872,0l-4.612-54.607c31.6595-12.53756,63.71483-12.53756,95.37265,0Z"/>
  <path fill="#FF6E33" d="M36.8769,79.37963l.55786,5.38c1.15562,11.16518,12.82576,19.91446,26.56537,19.91446a30.14119,30.14119,0,0,0,18.00068-5.77c4.77909-3.5838,7.98817-8.56078,8.56467-14.14446l.55786-5.38a67.3984,67.3984,0,0,1-54.24643,0Z"/>
  <path fill="#FF6E33" d="M48.57126,52.78334q1.07253.37476,2.08909.827c.01722-.00431.03447-.00862.056-.01293a1.93637,1.93637,0,0,0,1.39129-2.17524c-1.95987-12.18569-7.7921-19.62458-17.333-22.11859a1.93909,1.93909,0,0,0-.98208,3.75177c6.10791,1.59375,10.30764,5.56517,12.72841,12.06507a12.82326,12.82326,0,0,0-7.30539-2.214c-5.82792,0-10.77716,3.70868-11.26819,8.44683l-.23693,2.283a28.61518,28.61518,0,0,1,20.86083-.85289Z"/>
  <path fill="#FF6E33" d="M77.2839,53.59745c.02153.00431.03878.00862.056.01293q1.0144-.45229,2.08909-.827a28.61518,28.61518,0,0,1,20.86083.85289l-.23693-2.283c-.491-4.73816-5.44027-8.44683-11.26819-8.44683a12.82326,12.82326,0,0,0-7.30539,2.214c2.42077-6.4999,6.6205-10.47133,12.72841-12.06507a1.93909,1.93909,0,0,0-.98208-3.75177c-9.54094,2.494-15.37317,9.9329-17.333,22.11859A1.93637,1.93637,0,0,0,77.2839,53.59745Z"/>
  <path fill="#FF6E33" d="M60.27665,64.65618l-5.26438,5.26438A1.93813,1.93813,0,1,0,57.7532,72.6615L63.018,67.39711a1.422,1.422,0,0,1,1.96442,0L70.2468,72.6615a1.93813,1.93813,0,0,0,2.74093-2.74093l-5.264-5.26438a5.26552,5.26552,0,0,0-7.44712,0Z"/>
</svg>
